<svg id="Layer_1" enable-background="new 0 0 512 512" height="512" viewBox="0 0 512 512" width="512" xmlns="http://www.w3.org/2000/svg"><g><path d="m456.777 439.461-401.544.012c-11.439 0-20.713-9.273-20.714-20.712l-.008-270.924c0-11.44 9.273-20.714 20.713-20.714l401.543-.012c11.439 0 20.713 9.273 20.714 20.712l.008 270.924c0 11.44-9.273 20.714-20.712 20.714z" fill="#4380a0"/><path d="m477.489 418.639c0 11.495-9.22 20.824-20.604 20.824h-30.905c11.383 0 20.604-9.329 20.604-20.824l-.01-270.704c0-11.485-9.189-20.793-20.552-20.824h30.854c11.383 0 20.604 9.319 20.604 20.824z" fill="#3b7191"/><path d="m446.583 404.184c0 2.233-1.791 4.043-4 4.043h-26.905l-346.251.01c-2.209 0-4-1.81-4-4.043l-.01-241.794c0-2.233 1.791-4.043 4-4.043l346.251-.01h26.906c2.209 0 4 1.81 4 4.043z" fill="#f3f3f3"/><path d="m442.583 408.227h-26.905l-.01-249.88h26.906c2.209 0 4 1.81 4 4.043l.01 241.794c0 2.233-1.791 4.043-4.001 4.043z" fill="#e4e4e4"/><path d="m485.203 488h-458.406c-14.8 0-26.797-11.997-26.797-26.797v-20.636c0-2.277 1.846-4.123 4.123-4.123h503.755c2.277 0 4.123 1.846 4.123 4.123v20.636c-.001 14.8-11.998 26.797-26.798 26.797z" fill="#a9dbf5"/><path d="m507.879 436.444h-30.905c2.276 0 4.121 1.847 4.121 4.124v20.622c0 14.806-11.992 26.809-26.785 26.809h30.905c14.793.001 26.785-12.002 26.785-26.808v-20.622c0-2.278-1.845-4.125-4.121-4.125z" fill="#88c3e0"/><path d="m291.02 461.191h-70.04c-6.831 0-12.368-5.537-12.368-12.368v-12.379h94.776v12.379c0 6.831-5.537 12.368-12.368 12.368z" fill="#88c3e0"/><path d="m365.751 175.983c-.574 4.071-1.944 9.902-3.168 14.64-1.143 4.426-5.123 7.521-9.69 7.521h-13.985c-4.567 0-8.547-3.095-9.69-7.521-1.224-4.738-2.594-10.569-3.168-14.64-.427-3.033-2.248-5.689-4.9-7.218l-12.922-7.449c-2.649-1.527-5.854-1.775-8.689-.631-3.825 1.544-9.592 3.281-14.325 4.595-4.395 1.22-9.058-.677-11.343-4.628l-6.983-12.076c-2.287-3.955-1.597-8.953 1.666-12.15 3.501-3.431 7.88-7.537 11.127-10.069 2.413-1.882 3.803-4.785 3.803-7.846v-14.879c0-3.061-1.39-5.964-3.803-7.846-3.247-2.532-7.625-6.639-11.127-10.069-3.263-3.197-3.953-8.194-1.666-12.15l6.983-12.076c2.285-3.951 6.947-5.848 11.343-4.628 4.733 1.314 10.5 3.05 14.325 4.595 2.835 1.145 6.04.896 8.689-.631l12.922-7.449c2.652-1.529 4.473-4.185 4.9-7.218.574-4.071 1.944-9.902 3.168-14.64 1.143-4.426 5.123-7.521 9.69-7.521h13.985c4.567 0 8.547 3.095 9.69 7.521 1.224 4.738 2.594 10.569 3.168 14.64.427 3.033 2.248 5.689 4.9 7.218l12.922 7.449c2.649 1.527 5.854 1.775 8.689.631 3.825-1.544 9.592-3.281 14.325-4.595 4.395-1.22 9.058.677 11.343 4.628l6.983 12.076c2.287 3.955 1.597 8.953-1.666 12.15-3.501 3.431-7.88 7.537-11.127 10.069-2.413 1.882-3.803 4.785-3.803 7.846v14.879c0 3.061 1.39 5.964 3.803 7.846 3.247 2.532 7.625 6.639 11.127 10.069 3.263 3.197 3.953 8.194 1.666 12.15l-6.983 12.076c-2.285 3.951-6.947 5.848-11.343 4.628-4.733-1.314-10.5-3.05-14.325-4.595-2.835-1.145-6.04-.896-8.689.631l-12.922 7.449c-2.653 1.529-4.473 4.184-4.9 7.218zm14.582-64.911c0-18.987-15.416-34.379-34.433-34.379s-34.433 15.392-34.433 34.379 15.416 34.379 34.433 34.379 34.433-15.392 34.433-34.379z" fill="#ffc328"/><path d="m244.589 310.027c-.574 4.071-1.944 9.902-3.168 14.64-1.143 4.426-5.123 7.521-9.69 7.521h-13.985c-4.567 0-8.547-3.095-9.69-7.521-1.224-4.738-2.594-10.569-3.168-14.64-.427-3.033-2.248-5.689-4.9-7.218l-12.922-7.449c-2.649-1.527-5.854-1.775-8.689-.631-3.825 1.544-9.592 3.281-14.325 4.595-4.395 1.22-9.058-.677-11.343-4.628l-6.983-12.076c-2.287-3.955-1.597-8.953 1.666-12.15 3.501-3.431 7.88-7.537 11.127-10.069 2.413-1.882 3.803-4.785 3.803-7.846v-14.879c0-3.061-1.39-5.964-3.803-7.846-3.247-2.532-7.625-6.639-11.127-10.069-3.263-3.197-3.953-8.194-1.666-12.15l6.983-12.076c2.285-3.951 6.947-5.848 11.343-4.628 4.733 1.314 10.5 3.05 14.325 4.595 2.835 1.145 6.04.896 8.689-.631l12.922-7.449c2.652-1.529 4.473-4.185 4.9-7.218.574-4.071 1.944-9.902 3.168-14.64 1.143-4.426 5.123-7.521 9.69-7.521h13.985c4.567 0 8.547 3.095 9.69 7.521 1.224 4.738 2.594 10.569 3.168 14.64.427 3.033 2.248 5.689 4.9 7.218l12.922 7.449c2.649 1.527 5.854 1.775 8.689.631 3.825-1.544 9.592-3.281 14.325-4.595 4.395-1.22 9.058.677 11.343 4.628l6.983 12.076c2.287 3.955 1.597 8.953-1.666 12.15-3.501 3.431-7.88 7.537-11.127 10.069-2.413 1.882-3.803 4.785-3.803 7.846v14.879c0 3.061 1.39 5.964 3.803 7.846 3.247 2.532 7.625 6.639 11.127 10.069 3.263 3.197 3.953 8.194 1.666 12.15l-6.983 12.076c-2.285 3.951-6.947 5.848-11.343 4.628-4.733-1.314-10.5-3.051-14.325-4.595-2.835-1.145-6.04-.896-8.689.631l-12.922 7.449c-2.653 1.529-4.473 4.185-4.9 7.218zm14.582-64.911c0-18.987-15.416-34.379-34.433-34.379s-34.433 15.392-34.433 34.379 15.416 34.379 34.433 34.379 34.433-15.392 34.433-34.379z" fill="#f78e36"/></g></svg>